<?xml version="1.0" encoding="UTF-8"?>
<svg id="Layer_2" data-name="Layer 2" xmlns="http://www.w3.org/2000/svg" viewBox="0 0 904.09 706.21">
  <defs>
    <style>
      .cls-1 {
        fill: #f4f4f4;
      }

      .cls-2 {
        fill: #062241;
      }
    </style>
  </defs>
  <g id="Layer_1-2" data-name="Layer 1">
    <g>
      <path class="cls-1" d="M19.38,175.44L1.22,662.79s-6.2,43.42,44.3,43.42h732.57s51.84-.44,58.48-45.63,66.9-513.04,66.9-513.04c0,0,7.38-24.37-28.95-24.37s-167.47-18.9-167.47-18.9l-464.31-3.54h-106.77l-59.37,14.18-46.08-9.3-11.15,69.85Z"/>
      <g>
        <path class="cls-2" d="M878.81,123.17s-4.73-54.64-40.46-54.64h-465.78s-26.4,2.66-43.82-18.9c-17.43-21.56-28.35-32.19-28.35-32.19,0,0-14.18-17.43-42.24-17.43H46.08S0,8.86,0,51.39v262.1l2.03,322.28L46.78,187.11s8.86-63.95,70.3-63.95h761.74Z"/>
        <path class="cls-2" d="M737.57,210.78c-23.26-6.43-69.34,6.87-100.8,55.16-31.45,48.29-74.72,47.85-74.72,47.85,0,0-26.71,1.33-26.71-22.6s20.45-30.9,20.45-30.9h3.76c5.38,1.49,14.02,1.92,14.02,1.92,15.8,0,20.08-13.74,20.08-13.74-14.32,7.68-24.37-2.36-24.37-2.36,3.99-6.79,13.15-12.55,25.4-12.55s21.12,5.68,21.12,5.68c4.88-4.87,3.69-14.17,3.69-14.17,0-16.84-20.23-19.64-20.23-19.64h-16.09c0-13.74-7.09-12.71-7.09-12.71h-85.22l13.74,18.17c-19.35,16.84-53.54,72.81-53.54,72.81,0,0-34.19-55.97-53.54-72.81l13.74-18.17h-85.22s-7.09-1.03-7.09,12.71h-16.09s-20.23,2.8-20.23,19.64c0,0-1.19,9.3,3.69,14.17,0,0,8.86-5.68,21.12-5.68s21.41,5.76,25.4,12.55c0,0-10.05,10.04-24.37,2.36,0,0,4.28,13.74,20.08,13.74,0,0,8.64-.43,14.02-1.92h3.76s20.45,6.98,20.45,30.9-26.71,22.6-26.71,22.6c0,0-43.27.44-74.72-47.85-31.46-48.29-77.54-61.59-100.8-55.16-23.26,6.42-28.79,61.58-30.57,85.51-1.77,23.92-38.76,271.36-38.76,271.36,0,0,41.64,18.61,88.61-239.24,0,0,1.18,69.85-38.99,228.75,0,0,42.82,9.01,79.44-202.98-.22,3.29-7.42,109.1-28.79,185.85,0,0,33.27-10.63,51.43-86.39l18.17-79.75s-3.55,114.31-19.5,145.76c0,0,42.09-14.62,56.71-98.35h1.33s.3,64.98,22.15,96.88l-44,38.69,19.79,11.08-28.43,29.6-30.57-13.51s-12.63-3.76-16.4-.66c-3.76,3.1-2.65,6.64-2.65,6.64,0,0-25.7,11.3-6.87,40.76,0,0,.44-17.72,9.75-22.59l3.32-1.55s15.06,3.54,17.5-5.1c0,0,11.52,2.66,13.51,6.65l-23.04,21.71s-9.74,22.59,23.93,31.67c0,0-10.86-16.17-4.88-23.48,5.99-7.31,20.16-20.16,20.16-20.16,0,0,12.85,2.22,17.72,7.98,4.88,5.76,9.97,12.85-2.21,21.93,0,0,19.94,6.65,23.7-12.07,3.77-18.72-26.36-28.47-26.36-28.47l31.68-24.37,15.28,11.08,31.46-35s19.05,20.16,33.67,26.36l-51.17,61.58,34.78,21.27,37.43-56.27-24.14,68.23,36.99,19.94,15.33-66.01,15.33,66.01,36.99-19.94-24.14-68.23,37.43,56.27,34.78-21.27-51.17-61.58c14.62-6.2,33.67-26.36,33.67-26.36l31.46,35,15.28-11.08,31.68,24.37s-30.13,9.75-26.36,28.47c3.76,18.72,23.7,12.07,23.7,12.07-12.18-9.08-7.09-16.17-2.21-21.93,4.87-5.76,17.72-7.98,17.72-7.98,0,0,14.17,12.85,20.16,20.16,5.98,7.31-4.88,23.48-4.88,23.48,33.67-9.08,23.93-31.67,23.93-31.67l-23.04-21.71c1.99-3.99,13.51-6.65,13.51-6.65,2.44,8.64,17.5,5.1,17.5,5.1l3.32,1.55c9.31,4.87,9.75,22.59,9.75,22.59,18.83-29.46-6.87-40.76-6.87-40.76,0,0,1.11-3.54-2.65-6.64-3.77-3.1-16.4.66-16.4.66l-30.57,13.51-28.43-29.6,19.79-11.08-44-38.69c21.85-31.9,22.15-96.88,22.15-96.88h1.33c14.62,83.73,56.71,98.35,56.71,98.35-15.95-31.45-19.5-145.76-19.5-145.76l18.17,79.75c18.16,75.76,51.43,86.39,51.43,86.39-21.37-76.75-28.57-182.56-28.79-185.85,36.62,211.99,79.44,202.98,79.44,202.98-40.17-158.9-38.99-228.75-38.99-228.75,46.97,257.85,88.61,239.24,88.61,239.24,0,0-36.99-247.44-38.76-271.36-1.78-23.93-7.31-79.09-30.57-85.51ZM551.52,205.68c3.88-1.77,22.49.89,22.49.89-1.03.92-2.29,4.84-2.29,4.84-2.99,9.96-10.56,9.34-10.56,9.34-12.52-1.78-13.51-13.29-9.64-15.07ZM340.96,220.75s-7.57.62-10.56-9.34c0,0-1.26-3.92-2.29-4.84,0,0,18.61-2.66,22.49-.89,3.87,1.78,2.88,13.29-9.64,15.07ZM569.43,463.57c-10.93,68.23-118.37,119.77-118.37,119.77,0,0-107.44-51.54-118.37-119.77v-110.91h236.74v110.91Z"/>
        <rect class="cls-2" x="355.36" y="379.39" width="190.21" height="24.81"/>
        <rect class="cls-2" x="355.36" y="425.47" width="190.21" height="24.81"/>
        <polygon class="cls-2" points="360.16 471.54 375 496.35 452.94 496.35 530.88 496.35 545.72 471.54 452.94 471.54 360.16 471.54"/>
      </g>
    </g>
  </g>
</svg>